ffmpeg version 2022-04-14-git-ea84eb2db1-essentials_build-www.gyan.dev Copyright (c) 2000-2022 the FFmpeg developers
  built with gcc 11.2.0 (Rev10, Built by MSYS2 project)
  configuration: --enable-gpl --enable-version3 --enable-static --disable-w32threads --disable-autodetect --enable-fontconfig --enable-iconv --enable-gnutls --enable-libxml2 --enable-gmp --enable-bzlib --enable-lzma --enable-zlib --enable-libsrt --enable-libssh --enable-libzmq --enable-avisynth --enable-sdl2 --enable-libwebp --enable-libx264 --enable-libx265 --enable-libxvid --enable-libaom --enable-libopenjpeg --enable-libvpx --enable-mediafoundation --enable-libass --enable-libfreetype --enable-libfribidi --enable-libvidstab --enable-libvmaf --enable-libzimg --enable-amf --enable-cuda-llvm --enable-cuvid --enable-ffnvcodec --enable-nvdec --enable-nvenc --enable-d3d11va --enable-dxva2 --enable-libmfx --enable-libgme --enable-libopenmpt --enable-libopencore-amrwb --enable-libmp3lame --enable-libtheora --enable-libvo-amrwbenc --enable-libgsm --enable-libopencore-amrnb --enable-libopus --enable-libspeex --enable-libvorbis --enable-librubberband
  libavutil      57. 24.101 / 57. 24.101
  libavcodec     59. 26.100 / 59. 26.100
  libavformat    59. 22.100 / 59. 22.100
  libavdevice    59.  6.100 / 59.  6.100
  libavfilter     8. 31.100 /  8. 31.100
  libswscale      6.  6.100 /  6.  6.100
  libswresample   4.  6.100 /  4.  6.100
  libpostproc    56.  5.100 / 56.  5.100
Splitting the commandline.
Reading option '-v' ... matched as option 'v' (set logging level) with argument 'debug'.
Reading option '-nostdin' ... matched as option 'stdin' (enable or disable interaction on standard input) with argument 0.
Reading option '-progress' ... matched as option 'progress' (write program-readable progress information) with argument 'C:/Users/pedro/AppData/Local/Temp/KritaFFmpegProgress.zDGtxC'.
Reading option '-r' ... matched as option 'r' (set frame rate (Hz value, fraction or abbreviation)) with argument '12'.
Reading option '-start_number' ... matched as AVOption 'start_number' with argument '9'.
Reading option '-i' ... matched as input url with argument 'C:/Users/pedro/DEV/jump-tales/characters/murasaki/gifs/frame%04d.png'.
Reading option '-vf' ... matched as option 'vf' (set video filters) with argument 'palettegen'.
Reading option '-y' ... matched as option 'y' (overwrite output files) with argument '1'.
Reading option 'C:/Users/pedro/DEV/jump-tales/characters/murasaki/gifs/palette.png' ... matched as output url.
Finished splitting the commandline.
Parsing a group of options: global .
Applying option v (set logging level) with argument debug.
Applying option nostdin (enable or disable interaction on standard input) with argument 0.
Applying option progress (write program-readable progress information) with argument C:/Users/pedro/AppData/Local/Temp/KritaFFmpegProgress.zDGtxC.
[file @ 00000133b473c940] Setting default whitelist 'file,crypto,data'
Applying option y (overwrite output files) with argument 1.
Successfully parsed a group of options.
Parsing a group of options: input url C:/Users/pedro/DEV/jump-tales/characters/murasaki/gifs/frame%04d.png.
Applying option r (set frame rate (Hz value, fraction or abbreviation)) with argument 12.
Successfully parsed a group of options.
Opening an input file: C:/Users/pedro/DEV/jump-tales/characters/murasaki/gifs/frame%04d.png.
[image2 @ 00000133b477ce40] Opening 'C:/Users/pedro/DEV/jump-tales/characters/murasaki/gifs/frame0009.png' for reading
[file @ 00000133b4781b80] Setting default whitelist 'file,crypto,data'
[AVIOContext @ 00000133b4789d40] Statistics: 17009 bytes read, 0 seeks
[image2 @ 00000133b477ce40] Opening 'C:/Users/pedro/DEV/jump-tales/characters/murasaki/gifs/frame0010.png' for reading
[file @ 00000133b478e300] Setting default whitelist 'file,crypto,data'
[AVIOContext @ 00000133b47a0680] Statistics: 16880 bytes read, 0 seeks
[image2 @ 00000133b477ce40] Opening 'C:/Users/pedro/DEV/jump-tales/characters/murasaki/gifs/frame0011.png' for reading
[file @ 00000133b4798640] Setting default whitelist 'file,crypto,data'
[AVIOContext @ 00000133b47a0780] Statistics: 16942 bytes read, 0 seeks
[image2 @ 00000133b477ce40] Opening 'C:/Users/pedro/DEV/jump-tales/characters/murasaki/gifs/frame0012.png' for reading
[file @ 00000133b47a4bc0] Setting default whitelist 'file,crypto,data'
[AVIOContext @ 00000133b47a0680] Statistics: 16892 bytes read, 0 seeks
[image2 @ 00000133b477ce40] Opening 'C:/Users/pedro/DEV/jump-tales/characters/murasaki/gifs/frame0013.png' for reading
[file @ 00000133b47a8fc0] Setting default whitelist 'file,crypto,data'
[AVIOContext @ 00000133b47a0680] Statistics: 16865 bytes read, 0 seeks
[image2 @ 00000133b477ce40] Opening 'C:/Users/pedro/DEV/jump-tales/characters/murasaki/gifs/frame0014.png' for reading
[file @ 00000133b47a8fc0] Setting default whitelist 'file,crypto,data'
[AVIOContext @ 00000133b47a0680] Statistics: 16783 bytes read, 0 seeks
[image2 @ 00000133b477ce40] Opening 'C:/Users/pedro/DEV/jump-tales/characters/murasaki/gifs/frame0015.png' for reading
[file @ 00000133b47a8fc0] Setting default whitelist 'file,crypto,data'
[AVIOContext @ 00000133b47b1fc0] Statistics: 16761 bytes read, 0 seeks
[image2 @ 00000133b477ce40] Opening 'C:/Users/pedro/DEV/jump-tales/characters/murasaki/gifs/frame0016.png' for reading
[file @ 00000133b47b1fc0] Setting default whitelist 'file,crypto,data'
[AVIOContext @ 00000133b47b63c0] Statistics: 17294 bytes read, 0 seeks
Input #0, image2, from 'C:/Users/pedro/DEV/jump-tales/characters/murasaki/gifs/frame%04d.png':
  Duration: 00:00:00.32, start: 0.000000, bitrate: N/A
  Stream #0:0, 8, 1/25: Video: png, 1 reference frame, rgba(pc), 774x774 [SAR 3779:3779 DAR 1:1], 0/1, 25 fps, 25 tbr, 25 tbn
Successfully opened the file.
Parsing a group of options: output url C:/Users/pedro/DEV/jump-tales/characters/murasaki/gifs/palette.png.
Applying option vf (set video filters) with argument palettegen.
Successfully parsed a group of options.
Opening an output file: C:/Users/pedro/DEV/jump-tales/characters/murasaki/gifs/palette.png.
Successfully opened the file.
detected 4 logical cores
Stream mapping:
  Stream #0:0 -> #0:0 (png (native) -> png (native))
cur_dts is invalid st:0 (0) [init:0 i_done:0 finish:0] (this is harmless if it occurs once at the start per stream)
    Last message repeated 4 times
[graph 0 input from stream 0:0 @ 00000133b480a640] Setting 'video_size' to value '774x774'
[graph 0 input from stream 0:0 @ 00000133b480a640] Setting 'pix_fmt' to value '26'
[graph 0 input from stream 0:0 @ 00000133b480a640] Setting 'time_base' to value '1/12'
[graph 0 input from stream 0:0 @ 00000133b480a640] Setting 'pixel_aspect' to value '3779/3779'
[graph 0 input from stream 0:0 @ 00000133b480a640] Setting 'frame_rate' to value '12/1'
[graph 0 input from stream 0:0 @ 00000133b480a640] w:774 h:774 pixfmt:rgba tb:1/12 fr:12/1 sar:3779/3779
[format @ 00000133b480bb80] Setting 'pix_fmts' to value 'rgb24|rgba|rgb48be|rgba64be|pal8|gray|ya8|gray16be|ya16be|monob'
[auto_scale_0 @ 00000133b480e440] w:iw h:ih flags:'' interl:0
[Parsed_palettegen_0 @ 00000133b47fe6c0] auto-inserting filter 'auto_scale_0' between the filter 'graph 0 input from stream 0:0' and the filter 'Parsed_palettegen_0'
[auto_scale_1 @ 00000133b480e980] w:iw h:ih flags:'' interl:0
[format @ 00000133b480bb80] auto-inserting filter 'auto_scale_1' between the filter 'Parsed_palettegen_0' and the filter 'format'
[AVFilterGraph @ 00000133b47cc840] query_formats: 4 queried, 3 merged, 2 already done, 0 delayed
[auto_scale_1 @ 00000133b480e980] picking rgba out of 10 ref:bgra alpha:1
[swscaler @ 00000133b80e10c0] [swscaler @ 00000133b80ef080] Forcing full internal H chroma due to input having non subsampled chroma
[swscaler @ 00000133b80e10c0] [swscaler @ 00000133b8115ec0] Forcing full internal H chroma due to input having non subsampled chroma
[swscaler @ 00000133b80e10c0] [swscaler @ 00000133b8135f40] Forcing full internal H chroma due to input having non subsampled chroma
[swscaler @ 00000133b80e10c0] [swscaler @ 00000133b81524c0] Forcing full internal H chroma due to input having non subsampled chroma
[swscaler @ 00000133b80e10c0] [swscaler @ 00000133b816cac0] Forcing full internal H chroma due to input having non subsampled chroma
[auto_scale_0 @ 00000133b480e440] w:774 h:774 fmt:rgba sar:3779/3779 -> w:774 h:774 fmt:bgra sar:1/1 flags:0x0
[swscaler @ 00000133b8192d00] [swscaler @ 00000133b819fcc0] Forcing full internal H chroma due to input having non subsampled chroma
[swscaler @ 00000133b8192d00] [swscaler @ 00000133b81b3d00] Forcing full internal H chroma due to input having non subsampled chroma
[swscaler @ 00000133b8192d00] [swscaler @ 00000133b81c6d40] Forcing full internal H chroma due to input having non subsampled chroma
[swscaler @ 00000133b8192d00] [swscaler @ 00000133b81d9d40] Forcing full internal H chroma due to input having non subsampled chroma
[swscaler @ 00000133b8192d00] [swscaler @ 00000133b81ecd80] Forcing full internal H chroma due to input having non subsampled chroma
[auto_scale_1 @ 00000133b480e980] w:16 h:16 fmt:bgra sar:1/1 -> w:16 h:16 fmt:rgba sar:1/1 flags:0x0
[swscaler @ 00000133b80e10c0] [swscaler @ 00000133b81685c0] Forcing full internal H chroma due to input having non subsampled chroma
[swscaler @ 00000133b80e10c0] [swscaler @ 00000133b81144c0] Forcing full internal H chroma due to input having non subsampled chroma
[swscaler @ 00000133b80e10c0] [swscaler @ 00000133b80ff0c0] Forcing full internal H chroma due to input having non subsampled chroma
[swscaler @ 00000133b80e10c0] [swscaler @ 00000133b8135e80] Forcing full internal H chroma due to input having non subsampled chroma
[swscaler @ 00000133b80e10c0] [swscaler @ 00000133b8203d80] Forcing full internal H chroma due to input having non subsampled chroma
[auto_scale_0 @ 00000133b480e440] w:774 h:774 fmt:rgba sar:3779/3779 -> w:774 h:774 fmt:bgra sar:1/1 flags:0x0
[swscaler @ 00000133b80e10c0] [swscaler @ 00000133b8203d80] Forcing full internal H chroma due to input having non subsampled chroma
[swscaler @ 00000133b80e10c0] [swscaler @ 00000133b8100940] Forcing full internal H chroma due to input having non subsampled chroma
[swscaler @ 00000133b80e10c0] [swscaler @ 00000133b816b700] Forcing full internal H chroma due to input having non subsampled chroma
[swscaler @ 00000133b80e10c0] [swscaler @ 00000133b8137740] Forcing full internal H chroma due to input having non subsampled chroma
[swscaler @ 00000133b80e10c0] [swscaler @ 00000133b81144c0] Forcing full internal H chroma due to input having non subsampled chroma
[auto_scale_0 @ 00000133b480e440] w:774 h:774 fmt:rgba sar:3779/3779 -> w:774 h:774 fmt:bgra sar:1/1 flags:0x0
[swscaler @ 00000133b80e10c0] [swscaler @ 00000133b8203d80] Forcing full internal H chroma due to input having non subsampled chroma
[swscaler @ 00000133b80e10c0] [swscaler @ 00000133b8100940] Forcing full internal H chroma due to input having non subsampled chroma
[swscaler @ 00000133b80e10c0] [swscaler @ 00000133b816b700] Forcing full internal H chroma due to input having non subsampled chroma
[swscaler @ 00000133b80e10c0] [swscaler @ 00000133b8137740] Forcing full internal H chroma due to input having non subsampled chroma
[swscaler @ 00000133b80e10c0] [swscaler @ 00000133b81144c0] Forcing full internal H chroma due to input having non subsampled chroma
[auto_scale_0 @ 00000133b480e440] w:774 h:774 fmt:rgba sar:3779/3779 -> w:774 h:774 fmt:bgra sar:1/1 flags:0x0
cur_dts is invalid st:0 (0) [init:0 i_done:0 finish:0] (this is harmless if it occurs once at the start per stream)
    Last message repeated 7 times
[Parsed_palettegen_0 @ 00000133b47fe6c0] 201(+1) colors generated out of 201 colors; ratio=1.000000
cur_dts is invalid st:0 (0) [init:0 i_done:0 finish:0] (this is harmless if it occurs once at the start per stream)
Output #0, image2, to 'C:/Users/pedro/DEV/jump-tales/characters/murasaki/gifs/palette.png':
  Metadata:
    encoder         : Lavf59.22.100
  Stream #0:0, 0, 1/12: Video: png, 1 reference frame, rgba(pc, gbr/unknown/unknown, progressive), 16x16 (0x0) [SAR 1:1 DAR 1:1], 0/1, q=2-31, 200 kb/s, 12 fps, 12 tbn
    Metadata:
      encoder         : Lavc59.26.100 png
Clipping frame in rate conversion by 0.000008
frame=    1 fps=0.0 q=0.0 size=N/A time=00:00:00.00 bitrate=N/A speed=   0x    cur_dts is invalid st:0 (0) [init:1 i_done:0 finish:0] (this is harmless if it occurs once at the start per stream)
[out_0_0 @ 00000133b480ba80] EOF on sink link out_0_0:default.
No more output streams to write to, finishing.
[image2 @ 00000133b47bc800] Opening 'C:/Users/pedro/DEV/jump-tales/characters/murasaki/gifs/palette.png' for writing
[file @ 00000133b480a500] Setting default whitelist 'file,crypto,data'
[AVIOContext @ 00000133b814d780] Statistics: 768 bytes written, 0 seeks, 1 writeouts
frame=    1 fps=0.0 q=-0.0 Lsize=N/A time=00:00:00.08 bitrate=N/A speed=0.913x    
[AVIOContext @ 00000133b477cb80] Statistics: 347 bytes written, 0 seeks, 2 writeouts
video:1kB audio:0kB subtitle:0kB other streams:0kB global headers:0kB muxing overhead: unknown
Input file #0 (C:/Users/pedro/DEV/jump-tales/characters/murasaki/gifs/frame%04d.png):
  Input stream #0:0 (video): 8 packets read (135426 bytes); 8 frames decoded; 
  Total: 8 packets (135426 bytes) demuxed
Output file #0 (C:/Users/pedro/DEV/jump-tales/characters/murasaki/gifs/palette.png):
  Output stream #0:0 (video): 1 frames encoded; 1 packets muxed (768 bytes); 
  Total: 1 packets (768 bytes) muxed
8 frames successfully decoded, 0 decoding errors
